<?xml version="1.0" encoding="UTF-8" standalone="no"?>
<svg
   version="1.1"
   id="Layer_1"
   x="0px"
   y="0px"
   viewBox="0 0 16 15.999998"
   xml:space="preserve"
   sodipodi:docname="icon_mmal.svg"
   inkscape:export-filename="icon_mmap.svg"
   inkscape:export-xdpi="96"
   inkscape:export-ydpi="96"
   width="16"
   height="16"
   inkscape:version="1.3 (0e150ed6c4, 2023-07-21)"
   xmlns:inkscape="http://www.inkscape.org/namespaces/inkscape"
   xmlns:sodipodi="http://sodipodi.sourceforge.net/DTD/sodipodi-0.dtd"
   xmlns="http://www.w3.org/2000/svg"
   xmlns:svg="http://www.w3.org/2000/svg"><defs
     id="defs1" /><sodipodi:namedview
     id="namedview1"
     pagecolor="#ffffff"
     bordercolor="#000000"
     borderopacity="0.25"
     inkscape:showpageshadow="2"
     inkscape:pageopacity="0.0"
     inkscape:pagecheckerboard="0"
     inkscape:deskcolor="#d1d1d1"
     inkscape:zoom="1.6766187"
     inkscape:cx="1.4910963"
     inkscape:cy="17.594937"
     inkscape:window-width="1920"
     inkscape:window-height="1017"
     inkscape:window-x="-8"
     inkscape:window-y="-8"
     inkscape:window-maximized="1"
     inkscape:current-layer="Layer_1" /><g
     id="g1"
     transform="matrix(0.15131036,0,0,0.13021314,0,-8.295601e-4)"><path
       d="m 3.07,79.92 c 4.32,1.19 29.57,17.12 32.69,10.85 0.32,-0.64 2.87,-6.24 2.87,-6.27 l 13.62,3.47 c 0.44,1.39 -5.97,12.95 -7.23,14.27 -1.6,1.68 -3.21,2.68 -4.93,3.57 C 34.31,108.79 6.82,94.12 0,93.16 Z m 72.78,39.9 c 0.63,0.24 0.89,1.1 0.58,1.93 -0.31,0.83 -1.07,1.31 -1.7,1.07 l -18.78,-7.03 c -0.63,-0.24 -0.89,-1.1 -0.58,-1.93 0.31,-0.83 1.07,-1.31 1.7,-1.07 z m 10.94,-7.69 c 0.63,0.24 0.89,1.1 0.58,1.93 -0.31,0.83 -1.07,1.31 -1.7,1.07 L 66.89,108.1 c -0.63,-0.24 -0.89,-1.1 -0.58,-1.93 0.31,-0.83 1.07,-1.31 1.7,-1.07 z m 0.33,-11.66 c 0.63,0.24 0.89,1.1 0.58,1.93 -0.31,0.83 -1.07,1.31 -1.7,1.07 L 67.22,96.44 c -0.63,-0.24 -0.89,-1.1 -0.58,-1.93 0.31,-0.83 1.07,-1.31 1.7,-1.07 z M 22.26,22.99 c -0.66,-0.15 -1.03,-0.97 -0.83,-1.83 0.19,-0.86 0.88,-1.44 1.54,-1.29 l 19.56,4.41 c 0.66,0.15 1.03,0.97 0.83,1.83 -0.19,0.86 -0.88,1.44 -1.54,1.29 z M 19.79,12.13 C 19.13,11.98 18.76,11.16 18.96,10.3 19.15,9.44 19.84,8.86 20.5,9.01 l 19.56,4.41 c 0.66,0.15 1.03,0.97 0.83,1.83 -0.19,0.86 -0.88,1.44 -1.54,1.29 z m 5.9,-8.98 C 25.03,3 24.66,2.18 24.85,1.32 25.04,0.46 25.73,-0.12 26.39,0.03 l 19.56,4.41 c 0.66,0.15 1.03,0.97 0.83,1.83 -0.19,0.86 -0.88,1.44 -1.54,1.29 z m 13.28,44.06 -2.86,17.67 c -0.58,6.69 -0.63,11.89 5.95,15 3.44,1.62 4.32,1.42 8.12,2.06 l 19.27,-0.42 c 1.04,-0.02 26.34,11.02 28.43,12.43 l 7.83,-9.36 c 1.1,-1.31 -25.7,-14.04 -29.63,-15.46 -18.65,-6.72 -20.64,10.5 -16.9,-15.51 3.75,2.9 6.93,3.62 13.62,5.39 8.01,1.1 11.41,-0.86 17.65,-3.7 l 9.22,-4.57 -7.14,-10.84 -7.05,4.2 c -0.26,0.12 -0.92,0.45 -2.08,1.01 -2.92,1.07 -5.25,1.95 -7.25,1.26 C 69.51,44.05 64.09,34.3 46.34,34.92 21.65,35.78 24.02,32.83 7.71,52.34 l 9.79,7.55 c 7.7,-9.21 8.39,-11.43 20.79,-12.61 0.23,-0.04 0.45,-0.05 0.68,-0.07 z M 59.12,9.04 c 6.83,-3.12 14.89,-0.11 18,6.72 3.12,6.83 0.11,14.89 -6.72,18 -6.83,3.12 -14.89,0.11 -18,-6.72 -3.12,-6.83 -0.11,-14.89 6.72,-18 z"
       id="path1"
       style="fill:#c3b4ff;fill-opacity:1" /><path
       style="fill:#769fff;fill-opacity:1;stroke-width:0.149671"
       d="M 95.265674,92.573168 C 91.001506,90.484665 78.075361,84.796856 71.916978,82.299194 L 70.120924,81.570766 H 66.97783 c -1.728701,0 -6.342314,0.05617 -10.252472,0.124819 l -7.109379,0.124822 -2.170231,-0.376166 C 41.116496,80.347198 37.294208,77.443955 36.303161,72.980821 35.960087,71.435806 35.859477,68.89684 36.050454,66.603653 36.17915,65.058325 38.662365,48.995854 38.998145,47.536755 l 0.08239,-0.358007 -1.317807,0.103509 c -1.9562,0.153653 -5.154404,0.661948 -6.69547,1.064121 -2.942967,0.768025 -5.168451,2.034957 -7.313915,4.16369 -0.67731,0.672027 -2.366553,2.584003 -3.753876,4.248837 l -2.522405,3.02697 -1.367227,-1.05955 C 15.35786,58.143573 13.21035,56.485574 11.33759,55.041883 9.46483,53.598192 7.9325719,52.360725 7.9325719,52.291954 c 0,-0.14356 4.3959111,-5.3573 6.6729991,-7.914464 5.469676,-6.142432 8.486335,-8.051489 13.831946,-8.753383 2.613151,-0.343114 19.793174,-0.754052 22.479684,-0.537704 7.434551,0.598715 11.780721,2.396086 19.877245,8.220294 1.275947,0.917847 3.017357,2.022561 3.8698,2.454919 l 1.549897,0.786105 1.668032,-0.0094 c 1.55691,-0.0088 1.791111,-0.05155 3.515553,-0.641656 2.357341,-0.806687 3.817834,-1.542677 7.846343,-3.95403 1.791903,-1.072583 3.27942,-1.923284 3.305595,-1.890446 0.368887,0.462797 6.985472,10.657575 6.943918,10.699129 -0.03173,0.03173 -2.275683,1.143616 -4.986554,2.470852 -10.731246,5.253991 -12.869002,5.976743 -17.650903,5.967569 -2.740347,-0.0053 -3.687998,-0.141116 -6.707019,-0.961547 -5.278254,-1.434387 -7.540562,-2.327994 -9.794223,-3.868701 -0.679133,-0.464286 -1.234787,-0.822428 -1.234787,-0.79587 0,0.02656 -0.263129,1.893802 -0.584731,4.149436 -0.823604,5.776539 -0.951805,7.03765 -0.890824,8.763017 0.08505,2.406396 0.348002,2.514524 4.096187,1.684405 5.778642,-1.279811 10.796662,-0.60819 17.333159,2.319902 11.611202,5.201361 24.788121,12.031271 26.284111,13.623676 l 0.35204,0.374727 -3.85506,4.607687 c -2.120278,2.534227 -3.931444,4.619373 -4.024811,4.633655 -0.09336,0.01428 -1.247387,-0.501834 -2.564493,-1.146927 z"
       id="path11" /><path
       style="fill:#769fff;fill-opacity:1;stroke-width:0.149671"
       d="m 62.818931,34.795375 c -4.679662,-0.740874 -8.811222,-3.96799 -10.530952,-8.225614 -0.732239,-1.812841 -0.9824,-3.09937 -0.990112,-5.091954 -0.0099,-2.558192 0.451042,-4.414825 1.632373,-6.575025 3.690789,-6.7490377 12.388895,-9.0483157 18.893298,-4.9942994 2.999818,1.8697044 5.161442,4.8342334 6.089526,8.3513954 0.392894,1.488949 0.39547,4.673919 0.005,6.211352 -1.049355,4.131963 -3.636922,7.307377 -7.433704,9.122506 -0.693817,0.331692 -1.800302,0.740526 -2.458855,0.908519 -1.376081,0.351029 -3.931952,0.494919 -5.206597,0.29312 z"
       id="path12" /><path
       style="fill:#769fff;fill-opacity:1;stroke-width:0.149671"
       d="M 36.475531,106.04063 C 32.823343,105.59218 26.820333,103.54195 16.014811,99.052585 6.4787582,95.090651 2.9800728,93.752599 1.0102801,93.314187 0.53694518,93.208838 0.14967113,93.05759 0.14967113,92.978079 c 0,-0.149077 2.59307817,-11.423739 2.85388317,-12.408637 0.1441415,-0.544333 0.1532315,-0.549903 0.6293279,-0.385591 0.2656906,0.0917 4.0527303,1.960689 8.4156438,4.15332 8.419835,4.231481 11.362818,5.563881 14.894659,6.743376 4.375906,1.461381 7.238118,1.571637 8.420572,0.324373 0.211108,-0.22268 1.028865,-1.813483 1.817237,-3.535117 0.788371,-1.721634 1.465144,-3.161986 1.50394,-3.200782 0.08715,-0.08715 13.278302,3.260568 13.448331,3.41298 0.467157,0.418753 -3.397742,8.363435 -6.174212,12.691709 -1.205285,1.87893 -3.064591,3.48112 -5.473012,4.71616 -1.187885,0.60915 -2.295837,0.7613 -4.01051,0.55076 z"
       id="path13" /><path
       d="m 52.149695,67.563358 a 23.753298,27.328136 0 0 0 0,54.656272 v -4.60024 a 3.958883,4.5546893 0 0 1 0,-9.10937 V 81.181879 a 3.958883,4.5546893 0 0 1 0,-9.109378 z m -13.85609,13.664068 a 3.9588832,4.5546895 0 0 1 0,9.109379 3.9588832,4.5546895 0 0 1 0,-9.109379 z m 0,18.218757 a 3.958883,4.5546893 0 0 1 0,9.109377 3.958883,4.5546893 0 0 1 0,-9.109377 z m 0,-31.882825 a 23.753298,27.328136 0 0 0 0,54.656272 23.753298,27.328136 0 0 1 -11.678707,-14.26984 3.958883,4.5546893 0 1 1 -2.058619,-8.503607 23.753298,27.328136 0 0 1 0,-9.109378 3.958883,4.5546893 0 1 1 2.058619,-8.503605 22.941727,29.632809 0 0 1 11.678707,-14.269842 z m -13.856093,0 a 23.753298,27.328136 0 0 0 0,54.656272 23.753298,27.328136 0 0 1 -11.678704,-14.26984 3.958883,4.5546893 0 1 1 -2.05862,-8.503607 23.753298,27.328136 0 0 1 0,-9.109378 3.958883,4.5546893 0 1 1 2.05862,-8.503605 22.941727,29.632809 0 0 1 11.678704,-14.269842 z"
       fill="#e0e0e0"
       id="path1-4"
       style="stroke-width:4.24635" /></g></svg>
