<?xml version="1.0" encoding="UTF-8" standalone="no"?>
<svg
   version="1.1"
   id="Layer_1"
   x="0px"
   y="0px"
   viewBox="0 0 16 16"
   xml:space="preserve"
   sodipodi:docname="icon_mm.svg"
   inkscape:export-filename="icon_mm.svg"
   inkscape:export-xdpi="96"
   inkscape:export-ydpi="96"
   inkscape:version="1.3 (0e150ed6c4, 2023-07-21)"
   width="16"
   height="16"
   xmlns:inkscape="http://www.inkscape.org/namespaces/inkscape"
   xmlns:sodipodi="http://sodipodi.sourceforge.net/DTD/sodipodi-0.dtd"
   xmlns="http://www.w3.org/2000/svg"
   xmlns:svg="http://www.w3.org/2000/svg"><defs
     id="defs1" /><sodipodi:namedview
     id="namedview1"
     pagecolor="#ffffff"
     bordercolor="#000000"
     borderopacity="0.25"
     inkscape:showpageshadow="2"
     inkscape:pageopacity="0.0"
     inkscape:pagecheckerboard="0"
     inkscape:deskcolor="#d1d1d1"
     inkscape:zoom="26.725261"
     inkscape:cx="9.4105722"
     inkscape:cy="6.9784164"
     inkscape:window-width="1920"
     inkscape:window-height="1017"
     inkscape:window-x="-8"
     inkscape:window-y="-8"
     inkscape:window-maximized="1"
     inkscape:current-layer="g1" /><g
     id="g1"
     transform="translate(-44.871463,-53.444102)"><path
       d="m 45.335986,63.849907 c 0.653661,0.154953 4.474247,2.229249 4.946336,1.412812 0.04842,-0.08334 0.43426,-0.81253 0.43426,-0.816436 l 2.060847,0.45184 c 0.06658,0.180996 -0.903322,1.68626 -1.093973,1.858141 -0.242097,0.218758 -0.485707,0.348971 -0.74596,0.464861 -0.874574,0.388035 -5.034096,-1.522192 -6.066033,-1.647196 z m 11.012368,5.195504 c 0.09533,0.03125 0.134666,0.143235 0.08776,0.251312 -0.04691,0.108076 -0.161902,0.170579 -0.257228,0.139328 l -2.841608,-0.915399 c -0.09533,-0.03125 -0.134666,-0.143234 -0.08776,-0.251311 0.04691,-0.108077 0.161902,-0.170579 0.257227,-0.139328 z m 1.655335,-1.001339 c 0.09533,0.03125 0.134666,0.143235 0.08776,0.251311 -0.04691,0.108077 -0.161902,0.17058 -0.257227,0.139329 l -2.841609,-0.915399 c -0.09532,-0.03125 -0.134666,-0.143234 -0.08776,-0.251311 0.04691,-0.108077 0.161902,-0.170579 0.257228,-0.139328 z m 0.04993,-1.518285 c 0.09533,0.03125 0.134666,0.143234 0.08776,0.251311 -0.04691,0.108077 -0.161902,0.170579 -0.257228,0.139328 l -2.841608,-0.915398 c -0.09533,-0.03125 -0.134667,-0.143235 -0.08776,-0.251311 0.04691,-0.108077 0.161902,-0.17058 0.257227,-0.139328 z m -9.81399,-10.088914 c -0.09987,-0.01953 -0.15585,-0.126307 -0.125588,-0.23829 0.02875,-0.111984 0.133153,-0.187507 0.233018,-0.167975 l 2.959631,0.57424 c 0.09986,0.01953 0.155849,0.126306 0.125587,0.23829 -0.02875,0.111983 -0.133153,0.187507 -0.233018,0.167975 z m -0.373734,-1.414115 c -0.09987,-0.01953 -0.155849,-0.126307 -0.125587,-0.23829 0.02875,-0.111983 0.133153,-0.187507 0.233018,-0.167975 l 2.95963,0.57424 c 0.09987,0.01953 0.15585,0.126307 0.125588,0.23829 -0.02875,0.111983 -0.133153,0.187507 -0.233018,0.167975 z m 0.892731,-1.169314 c -0.09986,-0.01953 -0.155849,-0.126307 -0.1271,-0.23829 0.02875,-0.111983 0.133153,-0.187507 0.233018,-0.167975 l 2.95963,0.57424 c 0.09987,0.01953 0.15585,0.126307 0.125588,0.23829 -0.02875,0.111983 -0.133153,0.187507 -0.233018,0.167975 z m 2.009402,5.737191 -0.432748,2.300866 c -0.08776,0.871126 -0.09532,1.548234 0.900297,1.953197 0.520508,0.210946 0.653661,0.184903 1.22864,0.268239 l 2.915751,-0.05469 c 0.157362,-0.0026 3.985514,1.434949 4.301753,1.618549 l 1.18476,-1.218795 c 0.166442,-0.170579 -3.888676,-1.828192 -4.483326,-2.013095 -2.821938,-0.875032 -3.123045,1.367238 -2.557145,-2.019606 0.567414,0.377618 1.048581,0.471372 2.060847,0.701849 1.211996,0.143235 1.726452,-0.111983 2.670628,-0.481789 l 1.395082,-0.595074 -1.080356,-1.41151 -1.066738,0.546895 c -0.03934,0.01563 -0.139206,0.0586 -0.314726,0.131515 -0.441826,0.139328 -0.794379,0.253916 -1.097,0.164069 -1.004701,-0.302095 -1.824803,-1.571673 -4.510562,-1.490941 -3.735852,0.111984 -3.377247,-0.272145 -5.845119,2.268313 l 1.481329,0.98311 c 1.165089,-1.199263 1.269493,-1.488337 3.145742,-1.641988 0.0348,-0.0052 0.06809,-0.0065 0.102891,-0.0091 z m 3.048904,-4.970236 c 1.033449,-0.406265 2.253011,-0.01432 2.723586,0.875033 0.472088,0.889355 0.01664,1.938873 -1.016806,2.343836 -1.033449,0.406265 -2.253011,0.01432 -2.723586,-0.875032 -0.472088,-0.889356 -0.01664,-1.938874 1.016806,-2.343837 z"
       id="path1"
       style="fill:#c3b4ff;fill-opacity:1;stroke-width:0.140366" /><path
       style="fill:#769fff;fill-opacity:1;stroke-width:0.0210087"
       d="m 59.286146,65.497516 c -0.645212,-0.271951 -2.601072,-1.012578 -3.532899,-1.337807 l -0.271762,-0.09485 h -0.475582 c -0.261571,0 -0.959658,0.0073 -1.551305,0.01625 l -1.075723,0.01625 -0.328379,-0.04898 c -0.957681,-0.142849 -1.536033,-0.52089 -1.685988,-1.102048 -0.05191,-0.201182 -0.06713,-0.531788 -0.03824,-0.830392 0.01947,-0.201222 0.39521,-2.292766 0.446017,-2.48276 l 0.01247,-0.04662 -0.199398,0.01348 c -0.295993,0.02001 -0.779915,0.08619 -1.013094,0.138562 -0.445301,0.100007 -0.78204,0.264978 -1.106671,0.542167 -0.102484,0.08751 -0.358084,0.336472 -0.568,0.553255 l -0.381666,0.394151 -0.206876,-0.137967 c -0.113781,-0.07588 -0.438722,-0.291775 -0.72209,-0.479763 -0.283368,-0.187987 -0.515214,-0.349122 -0.515214,-0.358077 0,-0.01869 0.665147,-0.697591 1.009694,-1.030567 0.827618,-0.799825 1.28407,-1.04841 2.092916,-1.139806 0.395397,-0.04468 2.994912,-0.09819 3.401409,-0.07002 1.124925,0.07796 1.782545,0.312002 3.007633,1.070391 0.193064,0.119515 0.456558,0.263364 0.585541,0.319662 l 0.234516,0.102362 0.25239,-0.0012 c 0.235577,-0.0011 0.271014,-0.0067 0.53194,-0.08355 0.35669,-0.105042 0.577677,-0.200877 1.187233,-0.514867 0.271133,-0.139665 0.49621,-0.250437 0.50017,-0.246161 0.05582,0.06026 1.056975,1.387756 1.050687,1.393167 -0.0048,0.0041 -0.344334,0.148914 -0.754517,0.321738 -1.623749,0.684138 -1.947213,0.77825 -2.670765,0.777055 -0.414643,-6.9e-4 -0.558032,-0.01837 -1.014841,-0.125206 -0.798655,-0.186776 -1.140965,-0.303135 -1.481967,-0.503755 -0.10276,-0.06046 -0.186837,-0.107091 -0.186837,-0.103633 0,0.0035 -0.03981,0.246598 -0.08848,0.540311 -0.12462,0.752181 -0.144018,0.916395 -0.134791,1.14106 0.01287,0.313344 0.05266,0.327424 0.619795,0.219332 0.874369,-0.166649 1.633647,-0.07919 2.622687,0.302081 1.756895,0.677286 3.750699,1.56663 3.977058,1.773982 l 0.05327,0.04879 -0.58331,0.599982 c -0.32082,0.329989 -0.594868,0.601503 -0.608996,0.603363 -0.01413,0.0019 -0.188742,-0.06535 -0.388034,-0.149345 z"
       id="path11" /><path
       style="fill:#769fff;fill-opacity:1;stroke-width:0.0210087"
       d="m 54.376618,57.974088 c -0.708081,-0.09647 -1.333229,-0.516685 -1.593442,-1.071083 -0.110795,-0.236056 -0.148647,-0.403579 -0.149814,-0.66304 -0.0015,-0.33311 0.06825,-0.574868 0.246995,-0.856154 0.558454,-0.878814 1.874568,-1.17821 2.858752,-0.650324 0.453903,0.24346 0.780979,0.629481 0.921408,1.087462 0.05945,0.19388 0.05984,0.608605 7.56e-4,0.808799 -0.158778,0.538036 -0.550304,0.951517 -1.124796,1.18787 -0.104982,0.04319 -0.272404,0.09643 -0.37205,0.118302 -0.208216,0.04571 -0.594945,0.06444 -0.787812,0.03817 z"
       id="path12" /><path
       style="fill:#769fff;fill-opacity:1;stroke-width:0.0210087"
       d="m 50.390589,67.251156 c -0.552614,-0.05839 -1.460931,-0.325361 -3.095919,-0.909935 -1.442903,-0.515896 -1.972291,-0.690128 -2.270341,-0.747215 -0.07162,-0.01372 -0.130219,-0.03341 -0.130219,-0.04377 0,-0.01941 0.39236,-1.487521 0.431822,-1.615767 0.02181,-0.07088 0.02319,-0.0716 0.09522,-0.05021 0.0402,0.01194 0.61322,0.255307 1.273374,0.540817 1.274008,0.550994 1.719312,0.72449 2.253716,0.878076 0.66212,0.190291 1.095203,0.204648 1.27412,0.04224 0.03194,-0.029 0.155678,-0.236139 0.274967,-0.460318 0.119289,-0.22418 0.221691,-0.411732 0.227562,-0.416784 0.01319,-0.01135 2.009144,0.424569 2.034871,0.444415 0.07069,0.05453 -0.514113,1.089029 -0.934222,1.652627 -0.182372,0.244661 -0.463704,0.453287 -0.828123,0.614106 -0.17974,0.07932 -0.347384,0.09913 -0.606832,0.07172 z"
       id="path13" /><path
       style="fill:none;stroke-width:0.0374178"
       d="M 5.0701095,13.710507 C 4.5596913,13.600816 3.7742322,13.352149 2.2561428,12.819639 0.95817208,12.364341 0.57840314,12.239474 0.1933166,12.141387 c -0.09831866,-0.02504 -0.15542908,-0.05882 -0.14507371,-0.08581 0.0093933,-0.02448 0.1076188,-0.38753 0.21827901,-0.806781 0.1106602,-0.419251 0.21989685,-0.76953 0.24274811,-0.778399 0.0228512,-0.0089 0.57008629,0.209687 1.21607789,0.485679 0.6459916,0.275992 1.3794945,0.579692 1.6300064,0.674889 0.8415862,0.31981 1.5102659,0.452838 1.8341714,0.364894 0.1666513,-0.04525 0.2203256,-0.115503 0.5386488,-0.705044 0.06945,-0.128624 0.1492087,-0.233861 0.1772402,-0.233861 0.028032,0 0.3566959,0.06604 0.7303644,0.14676 1.2037162,0.260022 1.2220135,0.265015 1.2213299,0.333316 -3.439e-4,0.03436 -0.073034,0.197185 -0.1615326,0.361824 -0.5409313,1.006315 -0.9568958,1.511692 -1.4424798,1.752547 -0.2480301,0.123026 -0.3054679,0.136766 -0.5612667,0.134264 -0.1567281,-0.0015 -0.4365024,-0.03536 -0.6217204,-0.07516 z"
       id="path2"
       transform="translate(44.871463,53.444102)" /><path
       style="fill:none;stroke-width:0.0374178"
       d="M 5.0701095,13.710507 C 4.5596913,13.600816 3.7742322,13.352149 2.2561428,12.819639 0.95817208,12.364341 0.57840314,12.239474 0.1933166,12.141387 c -0.09831866,-0.02504 -0.15542908,-0.05882 -0.14507371,-0.08581 0.0093933,-0.02448 0.1076188,-0.38753 0.21827901,-0.806781 0.1106602,-0.419251 0.21989685,-0.76953 0.24274811,-0.778399 0.0228512,-0.0089 0.57008629,0.209687 1.21607789,0.485679 0.6459916,0.275992 1.3794945,0.579692 1.6300064,0.674889 0.8415862,0.31981 1.5102659,0.452838 1.8341714,0.364894 0.1666513,-0.04525 0.2203256,-0.115503 0.5386488,-0.705044 0.06945,-0.128624 0.1492087,-0.233861 0.1772402,-0.233861 0.028032,0 0.3566959,0.06604 0.7303644,0.14676 1.2037162,0.260022 1.2220135,0.265015 1.2213299,0.333316 -3.439e-4,0.03436 -0.073034,0.197185 -0.1615326,0.361824 -0.5409313,1.006315 -0.9568958,1.511692 -1.4424798,1.752547 -0.2480301,0.123026 -0.3054679,0.136766 -0.5612667,0.134264 -0.1567281,-0.0015 -0.4365024,-0.03536 -0.6217204,-0.07516 z"
       id="path3"
       transform="translate(44.871463,53.444102)" /><path
       d="m 45.019697,62.348096 v 7 h 0.5 v -1 h 1 v 1 h 4 v -1 h 1 v 1 h 0.5 v -7 h -0.5 v 1 h -1 v -1 h -4 v 1 h -1 v -1 z m 0.5,2 h 1 v 1 h -1 z m 5,0 h 1 v 1 h -1 z m -5,2 h 1 v 1 h -1 z m 5,0 h 1 v 1 h -1 z"
       fill="#c38ef1"
       id="path1-3"
       style="stroke-width:0.5" /></g></svg>
